<svg width="25" height="32" viewBox="0 0 25 32" fill="none" xmlns="http://www.w3.org/2000/svg">
<path fill-rule="evenodd" clip-rule="evenodd" d="M12.0681 7.73057C11.572 8.58981 11.8664 9.68852 12.7256 10.1846C13.5849 10.6807 14.6836 10.3864 15.1797 9.52705L17.2809 5.88772C17.9424 4.74205 17.5498 3.27706 16.4041 2.61563L12.7648 0.514395C11.9055 0.0183512 10.8068 0.312738 10.3107 1.17198C9.81463 2.03122 10.109 3.13 10.9683 3.62604L11.3095 3.82313C6.37435 4.40526 2.13535 8.05822 1.04505 13.189C0.122677 17.5301 1.69076 21.8188 4.77489 24.571C5.51517 25.2317 6.65087 25.1671 7.31146 24.4269C7.97211 23.686 7.90754 22.5506 7.16726 21.8899C5.0057 19.9608 3.91598 16.9647 4.55961 13.9359C5.36224 10.1587 8.60733 7.52794 12.2903 7.34552L12.0681 7.73057ZM20.9202 6.79065C20.18 6.13007 19.0443 6.19463 18.3837 6.93491C17.7231 7.6752 17.7877 8.81083 18.5279 9.47148C20.6895 11.4004 21.7792 14.3967 21.1355 17.4258C20.3327 21.2038 17.0857 23.8354 13.4013 24.016L13.6271 23.6247C14.1232 22.7658 13.8288 21.6669 12.9695 21.1706C12.1103 20.6749 11.0116 20.969 10.5155 21.8286L8.41428 25.4677C7.75285 26.6136 8.14533 28.0784 9.29107 28.7397L12.9304 30.841C13.7896 31.3373 14.8883 31.0425 15.3845 30.1836C15.8806 29.324 15.5862 28.2258 14.7269 27.7295L14.3942 27.5371C19.3257 26.9521 23.5604 23.3006 24.6501 18.1725C25.5725 13.8317 24.0044 9.54296 20.9202 6.79065Z" fill="#665CD1"/>
</svg>
