<svg width="27" height="27" viewBox="0 0 27 27" fill="none" xmlns="http://www.w3.org/2000/svg">
<g clip-path="url(#clip0_1500_4885)">
<g clip-path="url(#clip1_1500_4885)">
<circle cx="13.4522" cy="13.9211" r="7.79998" fill="#F1F0FF"/>
<path d="M26.4522 13.9213L23.5089 10.6535L23.9697 6.27867L19.6659 5.36751L17.4704 1.55371L13.4523 3.34949L9.43407 1.55371L7.23867 5.36751L2.93479 6.27867L3.39558 10.6535L0.452271 13.9213L3.39553 17.1892L2.93474 21.564L7.23861 22.4751L9.43402 26.2889L13.4522 24.4931L17.4704 26.2889L19.6658 22.4751L23.9697 21.564L23.5088 17.1892L26.4522 13.9213ZM18.9021 11.0749L12.3767 18.3857L7.84217 13.8512L8.92071 12.7727L12.3137 16.1656L17.7642 10.0592L18.9021 11.0749Z" fill="#665CD1"/>
</g>
</g>
<defs>
<clipPath id="clip0_1500_4885">
<rect width="25.9999" height="25.9999" fill="white" transform="translate(0.452271 0.920898)"/>
</clipPath>
<clipPath id="clip1_1500_4885">
<rect width="25.9999" height="25.9999" fill="white" transform="translate(0.452271 0.920898)"/>
</clipPath>
</defs>
</svg>
