<svg width="114" height="25" viewBox="0 0 114 25" fill="none" xmlns="http://www.w3.org/2000/svg">
<path d="M16.2723 24.3645C14.3198 24.3645 12.388 24.3645 10.4379 24.3645C10.4379 24.28 10.4379 24.2049 10.4379 24.1298C10.4376 19.2215 10.4383 14.3132 10.4359 9.4049C10.4356 8.68916 10.3794 7.9781 10.142 7.2957C9.90962 6.62764 9.51592 6.10726 8.79347 5.91809C8.32131 5.79446 7.84633 5.79739 7.38089 5.94816C6.68649 6.17308 6.32892 6.70926 6.11239 7.36453C5.91621 7.95823 5.8485 8.57414 5.84749 9.19442C5.83944 14.1615 5.83764 19.1287 5.83393 24.0958C5.83387 24.1781 5.83392 24.2604 5.83392 24.358C3.89406 24.358 1.96282 24.358 0.00317011 24.358C0.00317011 24.2993 0.00317404 24.2372 0.00316967 24.1752C0.00281955 19.2197 -0.00567801 14.2641 0.00669654 9.30866C0.0108278 7.65425 0.282116 6.04204 1.02173 4.5427C2.21438 2.12497 4.15636 0.68941 6.80852 0.23314C8.27783 -0.0196345 9.7235 0.0927026 11.1148 0.661967C11.9816 1.01664 12.7208 1.54987 13.3008 2.29283C13.3153 2.3114 13.3293 2.33035 13.3201 2.31827C13.6868 1.9838 14.0248 1.62726 14.4105 1.33344C15.3202 0.640479 16.3766 0.297682 17.5008 0.172496C19.3409 -0.0324127 21.0852 0.282443 22.6888 1.23269C24.4221 2.25975 25.5238 3.78851 26.148 5.68166C26.5089 6.77612 26.6903 7.90444 26.6931 9.05385C26.7055 14.1094 26.7047 19.165 26.7084 24.2205C26.7085 24.2613 26.7051 24.3021 26.7026 24.3588C24.7673 24.3588 22.8362 24.3588 20.8745 24.3588C20.8745 24.2872 20.8746 24.2078 20.8745 24.1284C20.8742 19.2437 20.8757 14.359 20.8715 9.47428C20.8709 8.79571 20.8372 8.11505 20.6229 7.46464C20.5264 7.17153 20.3988 6.87702 20.2268 6.62262C19.7877 5.97289 19.1225 5.7904 18.3821 5.84549C17.3745 5.92047 16.7719 6.47541 16.4863 7.55216C16.328 8.14925 16.2741 8.75888 16.2739 9.37365C16.2722 14.2879 16.2726 19.2021 16.2723 24.1163C16.2723 24.1925 16.2723 24.2688 16.2723 24.3645Z" fill="#171717"/>
<path d="M55.2627 12.8035C55.2243 15.579 54.052 18.5512 51.5949 20.9754C49.8613 22.6858 47.7775 23.7567 45.3805 24.1955C42.7488 24.6773 40.2114 24.3626 37.8045 23.1851C35.4307 22.0238 33.6387 20.2477 32.4196 17.9033C31.4049 15.9522 30.9557 13.8663 31.0511 11.6748C31.1855 8.58569 32.2937 5.89051 34.4475 3.65714C36.3591 1.675 38.6965 0.499885 41.4243 0.123689C43.9079 -0.21882 46.2902 0.139885 48.5412 1.25613C50.8676 2.40982 52.6439 4.14294 53.8634 6.43592C54.8111 8.21781 55.2683 10.1249 55.2627 12.8035ZM42.9567 19.4761C42.9954 19.3697 43.0173 19.3166 43.0342 19.2619C43.5667 17.5409 44.0998 15.8201 44.6283 14.0978C44.6649 13.9784 44.7203 13.9155 44.8437 13.8779C45.9363 13.5452 47.0267 13.2051 48.1175 12.8666C48.808 12.6523 49.4981 12.437 50.2199 12.2123C50.1311 12.1782 50.0733 12.152 50.0131 12.1333C48.2926 11.5992 46.5724 11.0639 44.8499 10.5362C44.7185 10.4959 44.6646 10.4295 44.6265 10.3054C44.0977 8.58332 43.564 6.86272 43.0309 5.14192C43.0147 5.08944 42.9927 5.03873 42.9597 4.95058C42.9286 5.0376 42.9112 5.08076 42.8975 5.12504C42.3642 6.84596 41.83 8.56659 41.3008 10.2888C41.259 10.4247 41.1971 10.4976 41.0529 10.5417C39.4256 11.0392 37.8011 11.5458 36.176 12.0503C36.0261 12.0969 35.877 12.146 35.6917 12.2054C35.7808 12.2359 35.8297 12.2542 35.8795 12.2696C37.5945 12.801 39.309 13.3344 41.0259 13.8598C41.1854 13.9086 41.2606 13.9869 41.3083 14.1471C41.5603 14.9934 41.8263 15.8356 42.088 16.6791C42.3722 17.5951 42.6569 18.5109 42.9567 19.4761Z" fill="#171717"/>
<path d="M102.988 5.17564C102.988 5.25871 102.988 5.33443 102.988 5.41015C102.988 8.63717 102.985 11.8642 102.99 15.0912C102.991 15.8369 103.061 16.5764 103.348 17.2756C103.868 18.5385 105.508 18.9771 106.57 18.136C107.044 17.7605 107.268 17.2303 107.373 16.6603C107.465 16.1584 107.535 15.6442 107.536 15.1352C107.547 10.2387 107.542 5.34208 107.542 0.445504C107.542 0.357722 107.542 0.269939 107.542 0.168945C109.47 0.168945 111.385 0.168945 113.331 0.168945C113.331 0.224639 113.331 0.286233 113.331 0.347827C113.33 5.31519 113.34 10.2826 113.325 15.2499C113.319 16.9935 112.981 18.6737 112.124 20.215C110.921 22.3786 109.076 23.656 106.649 24.088C105.193 24.3472 103.76 24.2452 102.375 23.6959C101.503 23.3503 100.761 22.8225 100.171 22.0886C100.149 22.0618 100.127 22.0359 100.1 22.005C99.9236 22.1957 99.7603 22.3891 99.5791 22.5639C98.7199 23.3932 97.677 23.8702 96.5155 24.0708C94.2023 24.4702 92.0549 24.0541 90.1496 22.6417C88.6657 21.5418 87.7744 20.035 87.2789 18.2776C86.981 17.2211 86.8542 16.1398 86.8534 15.0447C86.8499 10.1659 86.8514 5.287 86.8512 0.408128C86.8512 0.33251 86.8512 0.256892 86.8512 0.169246C88.7841 0.169246 90.7035 0.169246 92.6451 0.169246C92.6451 0.249218 92.6451 0.324019 92.6451 0.398821C92.6448 5.31309 92.6436 10.2274 92.6451 15.1416C92.6453 15.8107 92.7138 16.4719 92.9355 17.1088C93.3917 18.4191 94.835 18.968 96.0167 18.2774C96.5451 17.9687 96.8064 17.4659 96.9695 16.9029C97.138 16.3212 97.1939 15.7231 97.194 15.1195C97.1945 11.8866 97.1939 8.65364 97.1937 5.42073C97.1937 5.34437 97.1937 5.26801 97.1937 5.17564C99.1229 5.17564 101.042 5.17564 102.988 5.17564Z" fill="#171717"/>
<path d="M83.2136 11.9168C83.1554 15.6303 81.9696 18.6216 79.476 21.049C77.7222 22.7563 75.6205 23.8199 73.2053 24.2308C70.2609 24.7317 67.4672 24.2806 64.898 22.7384C61.8897 20.9326 60.0221 18.2738 59.2799 14.8514C58.666 12.0209 58.966 9.26703 60.2856 6.68153C62.0977 3.13117 64.9899 0.93124 68.9211 0.24021C72.8475 -0.449991 76.3528 0.554371 79.3152 3.24472C81.409 5.14618 82.6433 7.53734 83.062 10.3371C83.1525 10.9417 83.1801 11.5556 83.2136 11.9168ZM71.3626 5.66006C70.0999 5.66561 69.1471 5.88443 68.2638 6.35761C65.5042 7.83581 64.1552 10.8798 64.9017 13.9193C65.6789 17.0841 68.7532 19.1859 71.9534 18.7405C74.8412 18.3386 77.204 15.8438 77.4662 12.9222C77.611 11.3094 77.2341 9.82626 76.3071 8.50343C75.0461 6.70387 73.3145 5.73362 71.3626 5.66006Z" fill="#171717"/>
</svg>
