<svg width="71" height="66" viewBox="0 0 71 66" fill="none" xmlns="http://www.w3.org/2000/svg">
<path fill-rule="evenodd" clip-rule="evenodd" d="M12.122 6.32718C11.0534 4.47624 8.68663 3.84207 6.8357 4.91072C4.98476 5.97931 4.35065 8.34611 5.41924 10.197L23.1338 40.8798C23.426 41.3859 23.2526 42.0329 22.7465 42.325C22.4192 42.5142 22.0158 42.5142 21.6884 42.325L12.3008 36.9048C10.4498 35.8366 8.08311 36.4705 7.01446 38.3213C5.94581 40.1722 6.57998 42.5389 8.43091 43.6079L30.2927 56.2294C30.9458 56.607 31.5594 57.0479 32.1625 57.5005C38.8628 62.5313 48.185 63.3863 55.8995 58.9326C66.2117 52.9783 69.7445 39.7926 63.7908 29.4798L51.905 8.89284C50.8367 7.0419 48.47 6.40772 46.6191 7.47638C44.7676 8.54503 44.1337 10.9118 45.2026 12.7627L51.56 23.7744C52.0178 24.5676 51.7458 25.5818 50.9528 26.0402C50.1597 26.4981 49.145 26.2261 48.6871 25.4331L41.5002 12.9849C40.4319 11.134 38.0652 10.4998 36.2143 11.5684C34.3634 12.6371 33.7289 15.0038 34.7978 16.8548L41.9847 29.3031C42.4426 30.0961 42.1706 31.1103 41.3776 31.5681C40.5839 32.0266 39.5697 31.7546 39.1119 30.9616L30.2664 15.6407C29.1978 13.7897 26.831 13.1556 24.9802 14.2242C23.1292 15.2928 22.495 17.6596 23.5636 19.5105L32.4091 34.8309C32.867 35.6246 32.5953 36.6387 31.802 37.0966C31.0087 37.555 29.9944 37.2831 29.5364 36.4894L12.122 6.32718Z" fill="#FEFEFE"/>
<path fill-rule="evenodd" clip-rule="evenodd" d="M14.4177 33.6083L2.03058 12.1532C-0.118594 8.43068 1.1568 3.67072 4.87934 1.52155C8.60182 -0.627627 13.3618 0.647761 15.5109 4.37031L20.5485 13.0955C21.1793 12.1978 22.011 11.4198 23.0237 10.835C25.7094 9.28444 28.9352 9.51649 31.3309 11.1641C31.9925 9.96022 32.9812 8.91628 34.2577 8.17926C36.5182 6.87426 39.1608 6.83194 41.3697 7.83342C42.003 6.31033 43.1234 4.97572 44.6625 4.0872C48.3851 1.93802 53.1447 3.21342 55.2943 6.93596L67.1801 27.5229C67.1867 27.5346 67.1932 27.5457 67.1997 27.5574C74.2066 39.7361 70.0282 55.2931 57.856 62.3209C48.7367 67.5859 37.7227 66.5679 29.8132 60.6298C29.2391 60.1987 28.7784 59.8733 28.3363 59.6183L6.47456 46.9961C2.75201 44.8472 1.47662 40.087 3.6258 36.3644C5.77497 32.6418 10.5349 31.3668 14.2574 33.5157L14.4177 33.6083ZM23.1339 40.8794C23.4261 41.3855 23.2527 42.0324 22.7467 42.3246C22.4193 42.5137 22.0159 42.5137 21.6886 42.3246L12.3009 36.9044C10.45 35.8361 8.08321 36.4701 7.01456 38.3209C5.94597 40.1718 6.58014 42.5385 8.43108 43.6074L30.2929 56.229C30.946 56.6066 31.5596 57.0474 32.1626 57.5007C38.8627 62.5309 48.1849 63.3859 55.8995 58.9322C66.2117 52.9785 69.7451 39.7922 63.7908 29.48L51.9049 8.89248C50.8367 7.04155 48.4699 6.40737 46.6191 7.47602C45.4197 8.16844 44.731 9.40574 44.686 10.6947C44.6808 10.8426 44.684 10.9912 44.6958 11.1398C44.7401 11.6945 44.9058 12.2483 45.2025 12.7624L51.5599 23.774C52.0177 24.5672 51.7464 25.5814 50.9527 26.0398C50.1597 26.4977 49.1456 26.2257 48.6871 25.4327L41.5008 12.9845C41.328 12.6853 41.1212 12.4177 40.8877 12.1841C39.6799 10.973 37.7658 10.6723 36.2143 11.5681C35.0208 12.2572 34.3327 13.4863 34.2819 14.7687C34.2538 15.4748 34.4182 16.1972 34.7977 16.8544L41.9847 29.3027C42.4425 30.0957 42.1706 31.1098 41.3775 31.5683C40.5845 32.0261 39.5697 31.7542 39.1119 30.9611L30.2666 15.6403C29.1979 13.7894 26.8312 13.1552 24.9802 14.2238C23.7866 14.913 23.099 16.142 23.0478 17.4244C23.0196 18.1306 23.1843 18.8529 23.5638 19.5101L32.4092 34.8305C32.8672 35.6242 32.5954 36.6383 31.8021 37.0961C31.0088 37.5546 29.9945 37.2827 29.5365 36.4896L12.1222 6.32683C11.0535 4.47589 8.68679 3.84172 6.83586 4.91037C4.98493 5.97896 4.35075 8.34576 5.41941 10.1967L23.1339 40.8794Z" fill="#665CD1"/>
</svg>
