<svg width="21" height="21" viewBox="0 0 21 21" fill="none" xmlns="http://www.w3.org/2000/svg">
<g clip-path="url(#clip0_2412_4003)">
<path d="M14.6667 2.09277H6.33335C4.03217 2.09277 2.16669 3.95825 2.16669 6.25944V14.5928C2.16669 16.894 4.03217 18.7594 6.33335 18.7594H14.6667C16.9679 18.7594 18.8334 16.894 18.8334 14.5928V6.25944C18.8334 3.95825 16.9679 2.09277 14.6667 2.09277Z" stroke="#665CD1" stroke-width="1.33333" stroke-linecap="round" stroke-linejoin="round"/>
<path d="M13.8334 9.90103C13.9362 10.5946 13.8178 11.3029 13.4948 11.9252C13.1719 12.5475 12.661 13.0522 12.0347 13.3674C11.4085 13.6826 10.6987 13.7924 10.0065 13.681C9.31431 13.5696 8.67484 13.2428 8.17907 12.747C7.6833 12.2512 7.35648 11.6118 7.2451 10.9195C7.13371 10.2273 7.24343 9.51761 7.55865 8.89134C7.87386 8.26508 8.37853 7.75415 9.00086 7.43123C9.62319 7.10832 10.3315 6.98986 11.025 7.0927C11.7325 7.1976 12.3874 7.52725 12.8931 8.03295C13.3988 8.53866 13.7285 9.1936 13.8334 9.90103Z" stroke="#665CD1" stroke-width="1.33333" stroke-linecap="round" stroke-linejoin="round"/>
<path d="M15.0834 5.84277H15.0917" stroke="#665CD1" stroke-width="1.33333" stroke-linecap="round" stroke-linejoin="round"/>
</g>
<defs>
<clipPath id="clip0_2412_4003">
<rect width="20" height="20" fill="white" transform="translate(0.5 0.425781)"/>
</clipPath>
</defs>
</svg>
