<svg width="152" height="70" viewBox="0 0 152 70" fill="none" xmlns="http://www.w3.org/2000/svg">
<path d="M22.3066 32.4648C19.705 32.4648 17.131 32.4648 14.5326 32.4648C14.5326 32.3522 14.5326 32.2522 14.5326 32.1522C14.5322 25.6122 14.5331 19.0723 14.5301 12.5324C14.5296 11.5787 14.4548 10.6313 14.1385 9.72202C13.8288 8.83188 13.3042 8.13852 12.3416 7.88647C11.7125 7.72174 11.0796 7.72564 10.4595 7.92652C9.53422 8.22621 9.05778 8.94064 8.76928 9.81373C8.50788 10.6048 8.41766 11.4254 8.41632 12.2519C8.40559 18.8702 8.40319 25.4885 8.39825 32.1068C8.39817 32.2165 8.39824 32.3261 8.39824 32.4562C5.81352 32.4562 3.2403 32.4562 0.629224 32.4562C0.629224 32.378 0.629229 32.2953 0.629223 32.2126C0.628757 25.6097 0.617435 19.0069 0.633923 12.4041C0.639427 10.1998 1.0009 8.05162 1.98637 6.05387C3.57548 2.83242 6.16302 0.919658 9.69682 0.311714C11.6546 -0.0250886 13.5808 0.124592 15.4345 0.883091C16.5895 1.35567 17.5745 2.06615 18.3472 3.05608C18.3666 3.08083 18.3852 3.10608 18.373 3.08999C18.8616 2.64434 19.3119 2.16927 19.8258 1.77777C21.0379 0.854461 22.4455 0.39771 23.9434 0.23091C26.3952 -0.0421146 28.7193 0.377406 30.8561 1.64354C33.1656 3.01202 34.6334 5.04896 35.4651 7.57144C35.9459 9.02972 36.1877 10.5331 36.1914 12.0646C36.208 18.8007 36.2069 25.5369 36.2119 32.273C36.2119 32.3273 36.2074 32.3817 36.2041 32.4572C33.6254 32.4572 31.0525 32.4572 28.4387 32.4572C28.4387 32.3619 28.4387 32.2561 28.4387 32.1503C28.4383 25.6418 28.4402 19.1333 28.4346 12.6248C28.4339 11.7207 28.389 10.8137 28.1034 9.94712C27.9748 9.55657 27.8048 9.16416 27.5757 8.8252C26.9905 7.95947 26.1042 7.71633 25.1178 7.78973C23.7752 7.88964 22.9722 8.62905 22.5917 10.0637C22.3807 10.8593 22.309 11.6716 22.3087 12.4907C22.3065 19.0385 22.307 25.5863 22.3066 32.1341C22.3066 32.2357 22.3066 32.3373 22.3066 32.4648Z" fill="#FEFEFE"/>
<path d="M74.2582 17.0599C74.207 20.7581 72.6451 24.7183 69.3711 27.9484C67.0612 30.2273 64.2848 31.6543 61.091 32.239C57.5844 32.8809 54.2035 32.4615 50.9966 30.8927C47.8336 29.3453 45.4459 26.9788 43.8215 23.8551C42.4696 21.2554 41.8711 18.4761 41.9981 15.556C42.1772 11.4401 43.6538 7.84897 46.5236 4.87317C49.0706 2.23213 52.185 0.666381 55.8196 0.16513C59.1288 -0.291236 62.3031 0.18671 65.3023 1.67402C68.4021 3.21122 70.7688 5.52046 72.3937 8.57568C73.6565 10.9499 74.2656 13.491 74.2582 17.0599ZM57.8613 25.9507C57.9129 25.8089 57.9421 25.7381 57.9646 25.6653C58.6741 23.3722 59.3845 21.0793 60.0886 18.7845C60.1375 18.6254 60.2112 18.5416 60.3756 18.4915C61.8315 18.0482 63.2843 17.5951 64.7378 17.1441C65.6578 16.8586 66.5774 16.5716 67.539 16.2723C67.4207 16.2268 67.3437 16.1919 67.2635 16.167C64.971 15.4554 62.6791 14.7422 60.384 14.039C60.2088 13.9853 60.137 13.8968 60.0863 13.7315C59.3817 11.4369 58.6705 9.14436 57.9603 6.85153C57.9387 6.7816 57.9094 6.71403 57.8654 6.59658C57.8239 6.71253 57.8008 6.77004 57.7825 6.82904C57.072 9.12203 56.3602 11.4146 55.655 13.7093C55.5993 13.8904 55.5169 13.9875 55.3247 14.0463C53.1565 14.7092 50.992 15.3842 48.8267 16.0564C48.627 16.1184 48.4283 16.1839 48.1813 16.263C48.3001 16.3037 48.3652 16.328 48.4316 16.3486C50.7167 17.0567 53.0011 17.7673 55.2887 18.4675C55.5012 18.5325 55.6015 18.6367 55.6651 18.8502C56.0008 19.9779 56.3553 21.1 56.7039 22.2239C57.0825 23.4443 57.4619 24.6646 57.8613 25.9507Z" fill="#FEFEFE"/>
<path d="M137.849 6.89759C137.849 7.00827 137.849 7.10916 137.849 7.21005C137.849 11.5098 137.845 15.8095 137.851 20.1093C137.852 21.1029 137.945 22.0882 138.328 23.0198C139.021 24.7026 141.207 25.2869 142.622 24.1663C143.253 23.6659 143.551 22.9594 143.691 22.1999C143.813 21.5312 143.907 20.8461 143.908 20.1679C143.924 13.6437 143.917 7.11935 143.916 0.595056C143.916 0.478092 143.916 0.361129 143.916 0.226562C146.486 0.226562 149.037 0.226562 151.629 0.226562C151.629 0.300771 151.629 0.382839 151.629 0.464908C151.629 7.08353 151.641 13.7022 151.621 20.3207C151.614 22.644 151.163 24.8827 150.021 26.9363C148.419 29.8192 145.96 31.5212 142.727 32.0969C140.787 32.4422 138.877 32.3063 137.031 31.5743C135.87 31.1139 134.881 30.4106 134.095 29.4327C134.066 29.397 134.036 29.3626 134.001 29.3213C133.765 29.5754 133.548 29.8331 133.306 30.0661C132.162 31.171 130.772 31.8066 129.224 32.0739C126.142 32.6061 123.281 32.0516 120.742 30.1698C118.765 28.7042 117.578 26.6965 116.917 24.3549C116.52 22.9472 116.351 21.5065 116.35 20.0474C116.346 13.5467 116.348 7.04597 116.347 0.545255C116.347 0.444499 116.347 0.343744 116.347 0.226964C118.923 0.226964 121.48 0.226964 124.067 0.226964C124.067 0.333519 124.067 0.433186 124.067 0.532854C124.067 7.08073 124.065 13.6286 124.067 20.1765C124.068 21.0679 124.159 21.9489 124.454 22.7976C125.062 24.5435 126.985 25.2749 128.56 24.3547C129.264 23.9433 129.612 23.2734 129.829 22.5232C130.054 21.7481 130.128 20.9512 130.128 20.147C130.129 15.8394 130.128 11.5318 130.128 7.22415C130.128 7.1224 130.128 7.02066 130.128 6.89759C132.698 6.89759 135.255 6.89759 137.849 6.89759Z" fill="#FEFEFE"/>
<path d="M111.501 15.8782C111.423 20.8262 109.843 24.8118 106.521 28.0462C104.184 30.321 101.383 31.7382 98.1653 32.2856C94.2421 32.9531 90.5197 32.3521 87.0964 30.2972C83.0882 27.8911 80.5997 24.3484 79.6107 19.7883C78.7928 16.0169 79.1925 12.3476 80.9508 8.90264C83.3652 4.17207 87.2189 1.24083 92.4569 0.320088C97.6886 -0.59955 102.359 0.738682 106.306 4.32336C109.096 6.85691 110.741 10.0429 111.299 13.7734C111.419 14.5789 111.456 15.397 111.501 15.8782ZM95.7101 7.54161C94.0276 7.54901 92.7581 7.84056 91.5811 8.47104C87.9042 10.4406 86.1067 14.4964 87.1014 18.5464C88.137 22.7632 92.2332 25.5637 96.4972 24.9702C100.345 24.4347 103.493 21.1107 103.843 17.2179C104.036 15.0689 103.533 13.0927 102.298 11.3302C100.618 8.9324 98.3108 7.63962 95.7101 7.54161Z" fill="#FEFEFE"/>
<path d="M39.4286 64.832V46.0044H46.2653C48.4196 46.0044 50.2356 46.3783 51.7133 47.126C53.2089 47.856 54.3394 48.9242 55.105 50.3307C55.8706 51.7194 56.2533 53.4108 56.2533 55.4049C56.2533 57.3811 55.8706 59.0725 55.105 60.479C54.3394 61.8855 53.2089 62.9626 51.7133 63.7104C50.2356 64.4581 48.4196 64.832 46.2653 64.832H39.4286ZM42.8737 61.9745H46.0517C48.3306 61.9745 50.022 61.4315 51.1258 60.3454C52.2297 59.2594 52.7816 57.6125 52.7816 55.4049C52.7816 53.1794 52.2297 51.5325 51.1258 50.4643C50.022 49.3782 48.3306 48.8352 46.0517 48.8352H42.8737V61.9745ZM59.4772 64.832V54.7906C59.4772 54.2209 59.4594 53.6423 59.4238 53.0547C59.406 52.4672 59.3615 51.8975 59.2903 51.3456H62.5217L62.8956 55.031H62.3615C62.5395 54.1408 62.8333 53.4019 63.2428 52.8144C63.6701 52.2269 64.1864 51.7907 64.7917 51.5058C65.3971 51.2209 66.0558 51.0785 66.768 51.0785C67.0884 51.0785 67.3466 51.0963 67.5424 51.1319C67.7383 51.1497 67.9341 51.1942 68.13 51.2654L68.1032 54.2031C67.765 54.0607 67.4712 53.9716 67.222 53.936C66.9905 53.9004 66.6967 53.8826 66.3407 53.8826C65.5751 53.8826 64.9252 54.0429 64.3911 54.3633C63.8748 54.6838 63.4831 55.1289 63.2161 55.6986C62.9668 56.2683 62.8422 56.9182 62.8422 57.6481V64.832H59.4772ZM69.9881 64.832V51.3456H73.3263V64.832H69.9881ZM69.8012 48.8085V45.5504H73.5133V48.8085H69.8012ZM80.9039 64.832L75.082 51.3456H78.6339L82.8534 61.8944H82.0256L86.3519 51.3456H89.6902L83.8416 64.832H80.9039ZM97.7334 65.0991C95.4723 65.0991 93.7008 64.476 92.419 63.2297C91.1371 61.9834 90.4961 60.2742 90.4961 58.1021C90.4961 56.6956 90.7721 55.4672 91.324 54.4167C91.8759 53.3663 92.6415 52.5473 93.6207 51.9598C94.6177 51.3723 95.775 51.0785 97.0925 51.0785C98.3922 51.0785 99.4782 51.3545 100.351 51.9064C101.223 52.4583 101.882 53.2328 102.327 54.2298C102.79 55.2268 103.021 56.393 103.021 57.7283V58.6096H93.1934V56.847H100.644L100.19 57.2209C100.19 55.9746 99.9233 55.0221 99.3892 54.3633C98.8729 53.7046 98.1162 53.3752 97.1192 53.3752C96.0153 53.3752 95.1608 53.7669 94.5554 54.5503C93.9679 55.3336 93.6741 56.4286 93.6741 57.8351V58.1823C93.6741 59.6422 94.0302 60.7371 94.7424 61.4671C95.4723 62.1792 96.4961 62.5353 97.8135 62.5353C98.5791 62.5353 99.2913 62.4374 99.95 62.2416C100.627 62.0279 101.268 61.6896 101.873 61.2267L102.861 63.47C102.22 63.9863 101.454 64.3869 100.564 64.6718C99.6741 64.9567 98.7304 65.0991 97.7334 65.0991ZM105.821 64.832V54.7906C105.821 54.2209 105.804 53.6423 105.768 53.0547C105.75 52.4672 105.706 51.8975 105.634 51.3456H108.866L109.24 55.031H108.706C108.884 54.1408 109.177 53.4019 109.587 52.8144C110.014 52.2269 110.53 51.7907 111.136 51.5058C111.741 51.2209 112.4 51.0785 113.112 51.0785C113.433 51.0785 113.691 51.0963 113.887 51.1319C114.082 51.1497 114.278 51.1942 114.474 51.2654L114.447 54.2031C114.109 54.0607 113.815 53.9716 113.566 53.936C113.335 53.9004 113.041 53.8826 112.685 53.8826C111.919 53.8826 111.269 54.0429 110.735 54.3633C110.219 54.6838 109.827 55.1289 109.56 55.6986C109.311 56.2683 109.186 56.9182 109.186 57.6481V64.832H105.821Z" fill="#FEFEFE"/>
</svg>
