<svg width="20" height="19" viewBox="0 0 20 19" fill="none" xmlns="http://www.w3.org/2000/svg">
<path d="M12.1852 18.1658C10.7231 18.1658 9.27647 18.1658 7.81615 18.1658C7.81615 18.1025 7.81615 18.0463 7.81615 17.9901C7.81594 14.3146 7.81644 10.6391 7.81472 6.96367C7.81447 6.4277 7.7724 5.89524 7.59463 5.38424C7.42059 4.88398 7.12578 4.49431 6.58479 4.35265C6.23123 4.26007 5.87555 4.26227 5.52701 4.37516C5.00703 4.54359 4.73926 4.9451 4.57712 5.43578C4.43021 5.88036 4.37951 6.34157 4.37876 6.80606C4.37273 10.5256 4.37138 14.2451 4.36861 17.9646C4.36856 18.0262 4.3686 18.0879 4.3686 18.161C2.91597 18.161 1.46981 18.161 0.00237386 18.161C0.00237386 18.117 0.00237681 18.0705 0.00237353 18.024C0.00211136 14.3132 -0.00425184 10.6024 0.00501455 6.8916C0.00810817 5.65274 0.211256 4.44547 0.765097 3.32272C1.65819 1.51225 3.1124 0.437271 5.09841 0.095604C6.19866 -0.0936807 7.28122 -0.00955963 8.32303 0.416721C8.97212 0.682313 9.52571 1.0816 9.95998 1.63795C9.97084 1.65186 9.98134 1.66605 9.97448 1.65701C10.2491 1.40655 10.5021 1.13956 10.791 0.919536C11.4721 0.40063 12.2632 0.143934 13.1051 0.0501919C14.483 -0.103249 15.7891 0.132523 16.99 0.844097C18.288 1.61319 19.1129 2.75796 19.5803 4.17561C19.8505 4.99516 19.9864 5.84008 19.9885 6.70079C19.9978 10.4865 19.9972 14.2723 20 18.058C20 18.0885 19.9975 18.1191 19.9956 18.1615C18.5464 18.1615 17.1004 18.1615 15.6314 18.1615C15.6314 18.108 15.6314 18.0485 15.6314 17.989C15.6312 14.3312 15.6323 10.6734 15.6292 7.01562C15.6287 6.50749 15.6035 5.99779 15.443 5.51075C15.3707 5.29126 15.2752 5.07072 15.1464 4.88022C14.8176 4.39368 14.3194 4.25703 13.765 4.29829C13.0105 4.35443 12.5592 4.76999 12.3454 5.57629C12.2268 6.02341 12.1865 6.47991 12.1864 6.94027C12.1851 10.6202 12.1854 14.3001 12.1852 17.9799C12.1852 18.037 12.1852 18.0941 12.1852 18.1658Z" fill="#665CD1"/>
</svg>
