<svg width="20" height="21" viewBox="0 0 20 21" fill="none" xmlns="http://www.w3.org/2000/svg">
<path d="M20 9.91118C19.9519 12.9555 18.9735 15.4077 16.9161 17.3976C15.469 18.7972 13.7348 19.6692 11.742 20.006C9.31253 20.4166 7.00743 20.0469 4.88755 18.7826C2.40539 17.3022 0.864397 15.1225 0.251969 12.3169C-0.254537 9.99652 -0.0070366 7.73895 1.0818 5.6194C2.57696 2.70888 4.96339 0.905413 8.20704 0.338919C11.4468 -0.226896 14.339 0.596462 16.7834 2.80196C18.511 4.36075 19.5294 6.32098 19.8749 8.61618C19.9495 9.1118 19.9724 9.61512 20 9.91118ZM10.2216 4.78202C9.1797 4.78657 8.39356 4.96595 7.6647 5.35386C5.38775 6.56567 4.27465 9.06104 4.89061 11.5528C5.53193 14.1472 8.06851 15.8703 10.709 15.5051C13.0918 15.1757 15.0414 13.1305 15.2578 10.7354C15.3773 9.41325 15.0662 8.1974 14.3014 7.11296C13.2609 5.63772 11.8321 4.84232 10.2216 4.78202Z" fill="#665CD1"/>
</svg>
