<svg width="20" height="21" viewBox="0 0 20 21" fill="none" xmlns="http://www.w3.org/2000/svg">
<path d="M16.3411 16.8715C18.2345 15.0179 19.1378 12.7453 19.1674 10.6231C19.1717 8.57508 18.8194 7.11686 18.0891 5.75441C17.1494 4.00117 15.7807 2.676 13.988 1.79388C12.2534 0.940387 10.4176 0.666117 8.50385 0.928003C6.40182 1.21565 4.60068 2.11415 3.12768 3.62972C1.46799 5.33738 0.614023 7.39815 0.510453 9.76009C0.436977 11.4358 0.783111 13.0307 1.56498 14.5225C2.50443 16.3151 3.88528 17.6731 5.71453 18.561C7.56918 19.4613 9.52449 19.702 11.5524 19.3336C13.3995 18.9981 15.0052 18.1792 16.3411 16.8715Z" fill="#FEFEFE"/>
<path d="M20 10.6557C19.9682 12.9296 19.0004 15.3644 16.9717 17.3504C15.5404 18.7516 13.82 19.629 11.841 19.9884C9.66822 20.3831 7.57325 20.1253 5.58612 19.1607C3.62621 18.2093 2.14674 16.7543 1.14018 14.8337C0.302461 13.2353 -0.0683971 11.5265 0.0103272 9.73109C0.121296 7.20044 1.03626 4.99248 2.8145 3.16284C4.39271 1.53902 6.32251 0.576334 8.57468 0.268145C10.6252 -0.0124475 12.5921 0.281413 14.4505 1.19587C16.3713 2.141 17.8378 3.56082 18.8446 5.43929C19.6271 6.89907 20.0045 8.46144 20 10.6557ZM9.83981 16.1221C9.87177 16.0349 9.88984 15.9915 9.9038 15.9467C10.3434 14.5368 10.7836 13.127 11.2199 11.7161C11.2502 11.6183 11.2959 11.5667 11.3978 11.5359C12.2999 11.2634 13.2001 10.9848 14.1007 10.7075C14.6708 10.5319 15.2406 10.3555 15.8365 10.1715C15.7632 10.1435 15.7154 10.1221 15.6657 10.1068C14.2453 9.6692 12.8251 9.23069 11.403 8.79836C11.2944 8.76536 11.2499 8.71092 11.2185 8.60929C10.7819 7.1985 10.3412 5.78894 9.90113 4.37921C9.88771 4.33622 9.86959 4.29467 9.84233 4.22246C9.81661 4.29375 9.80231 4.32911 9.79098 4.36539C9.35069 5.77521 8.90962 7.18479 8.47267 8.59563C8.43818 8.70702 8.38708 8.76672 8.26802 8.80284C6.92453 9.21045 5.5833 9.62545 4.24157 10.0388C4.11782 10.0769 3.99473 10.1171 3.84168 10.1658C3.91526 10.1908 3.95565 10.2057 3.99676 10.2184C5.41272 10.6538 6.82822 11.0907 8.2457 11.5212C8.37739 11.5611 8.43952 11.6252 8.47891 11.7565C8.68696 12.4498 8.90659 13.1398 9.12262 13.8307C9.35723 14.5812 9.5923 15.3314 9.83981 16.1221Z" fill="#665CD1"/>
</svg>
