<svg width="16" height="17" viewBox="0 0 16 17" fill="none" xmlns="http://www.w3.org/2000/svg">
<g clip-path="url(#clip0_1500_4905)">
<path d="M7.50935 1.58884C7.71823 1.19555 8.28176 1.19555 8.49065 1.58884L10.3273 5.047C10.4076 5.19819 10.5532 5.30392 10.7218 5.33357L14.5782 6.01174C15.0168 6.08887 15.191 6.62481 14.8815 6.945L12.1601 9.76044C12.0412 9.88353 11.9856 10.0546 12.0095 10.2241L12.5562 14.1014C12.6184 14.5424 12.1625 14.8736 11.7623 14.6782L8.24377 12.9601C8.08994 12.885 7.91006 12.885 7.75623 12.9601L4.23765 14.6782C3.8375 14.8736 3.38159 14.5424 3.44377 14.1014L3.99051 10.2241C4.01441 10.0546 3.95883 9.88353 3.83985 9.76044L1.11851 6.945C0.809025 6.62482 0.983165 6.08887 1.42175 6.01174L5.27823 5.33357C5.44683 5.30392 5.59236 5.19819 5.67266 5.047L7.50935 1.58884Z" fill="#665CD1"/>
</g>
<defs>
<clipPath id="clip0_1500_4905">
<rect width="16" height="16" fill="white" transform="translate(0 0.665039)"/>
</clipPath>
</defs>
</svg>
