<svg width="21" height="21" viewBox="0 0 21 21" fill="none" xmlns="http://www.w3.org/2000/svg">
<g clip-path="url(#clip0_2412_3989)">
<path d="M6.61859 11.6875L4.18337 10.1379C4.14332 10.1124 4.14905 10.0522 4.1932 10.0347L14.571 5.92923C14.6135 5.91242 14.6579 5.94891 14.6496 5.99382L13.0543 14.654C13.0474 14.6914 13.0071 14.7122 12.9726 14.6962L9.82175 13.2333C9.79962 13.223 9.77342 13.2277 9.75616 13.2449L8.37252 14.6286C8.33589 14.6652 8.27327 14.6393 8.27327 14.5875V12.427C8.27327 12.4112 8.27972 12.3961 8.29114 12.3851L10.9304 9.85144C10.9777 9.80602 10.9253 9.72923 10.8657 9.75671L6.67417 11.6913C6.65621 11.6996 6.63527 11.6982 6.61859 11.6875Z" stroke="#665CD1" stroke-width="1.33333" stroke-linecap="round"/>
<circle cx="10.25" cy="10.4258" r="9.33333" stroke="#665CD1" stroke-width="1.33333"/>
</g>
<defs>
<clipPath id="clip0_2412_3989">
<rect width="20" height="20" fill="white" transform="translate(0.25 0.425781)"/>
</clipPath>
</defs>
</svg>
