<svg width="35" height="35" viewBox="0 0 35 35" fill="none" xmlns="http://www.w3.org/2000/svg">
<path d="M34.3045 17.1733C34.3045 26.5381 26.7128 34.1298 17.348 34.1298C7.98318 34.1298 0.391479 26.5381 0.391479 17.1733C0.391479 7.80849 7.98318 0.216797 17.348 0.216797C26.7128 0.216797 34.3045 7.80849 34.3045 17.1733Z" fill="#FEFEFE"/>
<path fill-rule="evenodd" clip-rule="evenodd" d="M17.348 30.2168C24.5517 30.2168 30.3915 24.377 30.3915 17.1733C30.3915 9.9696 24.5517 4.12984 17.348 4.12984C10.1443 4.12984 4.30452 9.9696 4.30452 17.1733C4.30452 24.377 10.1443 30.2168 17.348 30.2168ZM17.348 34.1298C26.7128 34.1298 34.3045 26.5381 34.3045 17.1733C34.3045 7.80849 26.7128 0.216797 17.348 0.216797C7.98318 0.216797 0.391479 7.80849 0.391479 17.1733C0.391479 26.5381 7.98318 34.1298 17.348 34.1298Z" fill="#665CD1"/>
<path d="M17.1313 7.22266L14.7393 14.9396L7.02246 17.3312L14.7393 19.7232L17.1313 27.44L19.523 19.7232L27.2399 17.3312L19.523 14.9396L17.1313 7.22266Z" fill="#665CD1"/>
</svg>
