<svg width="20" height="19" viewBox="0 0 20 19" fill="none" xmlns="http://www.w3.org/2000/svg">
<path d="M12.1872 3.94719C12.1872 4.00993 12.1872 4.06711 12.1872 4.1243C12.187 6.56142 12.185 8.99854 12.1882 11.4357C12.189 11.9988 12.2418 12.5573 12.4591 13.0854C12.8515 14.0392 14.0904 14.3704 14.8924 13.7352C15.2505 13.4516 15.4194 13.0511 15.4983 12.6207C15.5678 12.2416 15.6209 11.8533 15.6218 11.4689C15.6304 7.7709 15.6265 4.07289 15.6261 0.37488C15.6261 0.308584 15.6261 0.242289 15.6261 0.166016C17.0827 0.166016 18.5287 0.166016 19.9981 0.166016C19.9981 0.208077 19.9981 0.254594 19.9981 0.301111C19.9978 4.05258 20.0049 7.80408 19.9935 11.5555C19.9895 12.8723 19.7336 14.1413 19.0865 15.3053C18.1782 16.9393 16.7847 17.904 14.9521 18.2303C13.8526 18.426 12.77 18.349 11.7238 17.9341C11.0658 17.6731 10.5051 17.2745 10.0594 16.7202C10.0431 16.7 10.026 16.6805 10.0063 16.6571C9.87266 16.8011 9.74936 16.9472 9.61255 17.0792C8.96362 17.7055 8.17597 18.0658 7.29882 18.2172C5.55185 18.5189 3.93008 18.2046 2.49114 17.138C1.37047 16.3073 0.697306 15.1693 0.323086 13.8421C0.0981325 13.0442 0.00232825 12.2276 0.00174299 11.4006C-0.000851848 7.71593 0.00028341 4.03129 6.48111e-05 0.346652C6.48111e-05 0.289543 6.48111e-05 0.232435 6.48111e-05 0.166243C1.45989 0.166243 2.90941 0.166243 4.37578 0.166243C4.37578 0.226639 4.37579 0.283131 4.37579 0.339623C4.37553 4.051 4.37465 7.76237 4.37577 11.4737C4.37592 11.979 4.42764 12.4784 4.59512 12.9594C4.93963 13.949 6.02962 14.3635 6.92211 13.842C7.32115 13.6088 7.51853 13.2291 7.64168 12.8039C7.76893 12.3646 7.81114 11.9129 7.81122 11.457C7.81162 9.01544 7.81117 6.57386 7.81101 4.13229C7.811 4.07462 7.811 4.01695 7.811 3.94719C9.26794 3.94719 10.7172 3.94719 12.1872 3.94719Z" fill="#665CD1"/>
</svg>
