<svg width="21" height="21" viewBox="0 0 21 21" fill="none" xmlns="http://www.w3.org/2000/svg">
<g clip-path="url(#clip0_2412_4008)">
<g clip-path="url(#clip1_2412_4008)">
<path d="M19.2834 5.77546C19.1844 5.37996 18.9828 5.0176 18.6989 4.72496C18.415 4.43232 18.059 4.21978 17.6667 4.10879C16.2334 3.75879 10.5 3.75879 10.5 3.75879C10.5 3.75879 4.7667 3.75879 3.33336 4.14212C2.94107 4.25311 2.58501 4.46566 2.30115 4.75829C2.01729 5.05093 1.81569 5.4133 1.7167 5.80879C1.45437 7.26342 1.32606 8.73905 1.33336 10.2171C1.32401 11.7063 1.45234 13.1932 1.7167 14.6588C1.82583 15.042 2.03195 15.3906 2.31515 15.6709C2.59835 15.9511 2.94905 16.1536 3.33336 16.2588C4.7667 16.6421 10.5 16.6421 10.5 16.6421C10.5 16.6421 16.2334 16.6421 17.6667 16.2588C18.059 16.1478 18.415 15.9353 18.6989 15.6426C18.9828 15.35 19.1844 14.9876 19.2834 14.5921C19.5437 13.1484 19.672 11.6841 19.6667 10.2171C19.676 8.72792 19.5477 7.24104 19.2834 5.77546V5.77546Z" stroke="#665CD1" stroke-width="1.33333" stroke-linecap="round" stroke-linejoin="round"/>
<path d="M8.625 12.9422L13.4167 10.2172L8.625 7.49219V12.9422Z" stroke="#665CD1" stroke-width="1.33333" stroke-linecap="round" stroke-linejoin="round"/>
</g>
</g>
<defs>
<clipPath id="clip0_2412_4008">
<rect width="20" height="20" fill="white" transform="translate(0.5 0.425781)"/>
</clipPath>
<clipPath id="clip1_2412_4008">
<rect width="20" height="20" fill="white" transform="translate(0.5 0.425781)"/>
</clipPath>
</defs>
</svg>
