<svg width="120" height="120" viewBox="0 0 120 120" fill="none" xmlns="http://www.w3.org/2000/svg">
<path d="M70.0037 79.3474L84.0241 86.7332C85.9265 87.7356 88.2006 87.7356 90.1037 86.7332L104.123 79.3474C106.265 78.2197 107.606 75.9978 107.606 73.5776V59.757C107.606 57.3365 106.265 55.1151 104.123 53.9869L90.1037 46.6013C88.2006 45.5991 85.9265 45.5991 84.0241 46.6013L70.0037 53.9869C67.8626 55.1151 66.5217 57.3365 66.5217 59.757V73.5776C66.5217 75.9978 67.8626 78.2197 70.0037 79.3474Z" fill="#FEFEFE"/>
<path fill-rule="evenodd" clip-rule="evenodd" d="M85.8483 83.2715L71.8278 75.8856C70.9709 75.4343 70.4348 74.5461 70.4348 73.5776V59.757C70.4348 58.7888 70.9709 57.9002 71.8278 57.449L85.8483 50.0633C86.6087 49.6624 87.5185 49.6624 88.2796 50.0633L102.3 57.449C103.156 57.9002 103.693 58.7888 103.693 59.757V73.5776C103.693 74.5461 103.156 75.4343 102.3 75.8856L88.2796 83.2715C87.5185 83.6719 86.6087 83.6719 85.8483 83.2715ZM84.0241 86.7332L70.0037 79.3474C67.8626 78.2197 66.5217 75.9978 66.5217 73.5776V59.757C66.5217 57.3365 67.8626 55.1151 70.0037 53.9869L84.0241 46.6013C85.9265 45.5991 88.2006 45.5991 90.1037 46.6013L104.123 53.9869C106.265 55.1151 107.606 57.3365 107.606 59.757V73.5776C107.606 75.9978 106.265 78.2197 104.123 79.3474L90.1037 86.7332C88.2006 87.7356 85.9265 87.7356 84.0241 86.7332Z" fill="#665CD1"/>
<path fill-rule="evenodd" clip-rule="evenodd" d="M85.1068 85.901V66.8262H89.0198V85.901H85.1068Z" fill="#665CD1"/>
<path fill-rule="evenodd" clip-rule="evenodd" d="M67.1641 58.7385L87.0795 69.0374L106.321 58.7251L104.473 55.2761L87.0469 64.6153L68.9615 55.2627L67.1641 58.7385Z" fill="#665CD1"/>
<path fill-rule="evenodd" clip-rule="evenodd" d="M95.1072 63.3501L77.1646 54.0715L78.9619 50.5957L99.0202 60.9684V70.3343H95.1072V63.3501Z" fill="#665CD1"/>
<path d="M102.447 65.488L91.3553 71.1841C91.0181 71.3576 90.8988 71.7809 91.0964 72.1043L92.1542 73.8365C92.327 74.1196 92.6851 74.2278 92.9864 74.0876L103.021 69.418C103.251 69.3111 103.398 69.0802 103.398 68.8265V66.0678C103.398 65.58 102.882 65.265 102.447 65.488Z" fill="#FEFEFE"/>
</svg>
