<svg width="120" height="120" viewBox="0 0 120 120" fill="none" xmlns="http://www.w3.org/2000/svg">
<path d="M12.639 70.9146C12.639 67.3126 15.5589 64.3926 19.1608 64.3926H38.7848C42.3867 64.3926 45.3066 67.3126 45.3066 70.9146V93.2607C45.3066 96.8626 42.3867 99.7824 38.7848 99.7824H19.1608C15.5589 99.7824 12.639 96.8626 12.639 93.2607V70.9146Z" fill="#FEFEFE"/>
<path fill-rule="evenodd" clip-rule="evenodd" d="M38.7848 68.3059H19.1608C17.72 68.3059 16.5521 69.4733 16.5521 70.9146V93.2607C16.5521 94.7013 17.72 95.8694 19.1608 95.8694H38.7848C40.2256 95.8694 41.3935 94.7013 41.3935 93.2607V70.9146C41.3935 69.4733 40.2256 68.3059 38.7848 68.3059ZM19.1608 64.3926C15.5589 64.3926 12.639 67.3126 12.639 70.9146V93.2607C12.639 96.8626 15.5589 99.7824 19.1608 99.7824H38.7848C42.3867 99.7824 45.3066 96.8626 45.3066 93.2607V70.9146C45.3066 67.3126 42.3867 64.3926 38.7848 64.3926H19.1608Z" fill="#665CD1"/>
<path d="M19.4448 73.2402C19.4448 72.1126 20.359 71.1982 21.4866 71.1982H36.4592C37.5868 71.1982 38.5009 72.1126 38.5009 73.2402C38.5009 74.3678 37.5868 75.2815 36.4592 75.2815H21.4866C20.359 75.2815 19.4448 74.3678 19.4448 73.2402Z" fill="#665CD1"/>
<path d="M19.4442 80.0462C19.4442 78.9186 20.3583 78.0049 21.4859 78.0049H22.8471C23.9747 78.0049 24.8888 78.9186 24.8888 80.0462C24.8888 81.1738 23.9747 82.0881 22.8471 82.0881H21.4859C20.3583 82.0881 19.4442 81.1738 19.4442 80.0462Z" fill="#665CD1"/>
<path d="M19.4442 85.4921C19.4442 84.3645 20.3583 83.4502 21.4859 83.4502H22.8471C23.9747 83.4502 24.8888 84.3645 24.8888 85.4921C24.8888 86.6198 23.9747 87.5335 22.8471 87.5335H21.4859C20.3583 87.5335 19.4442 86.6198 19.4442 85.4921Z" fill="#665CD1"/>
<path d="M19.4442 90.9345C19.4442 89.8069 20.3583 88.8926 21.4859 88.8926H22.8471C23.9747 88.8926 24.8888 89.8069 24.8888 90.9345C24.8888 92.0622 23.9747 92.9765 22.8471 92.9765H21.4859C20.3583 92.9765 19.4442 92.0622 19.4442 90.9345Z" fill="#665CD1"/>
<path d="M26.25 80.0462C26.25 78.9186 27.1641 78.0049 28.2917 78.0049H29.6528C30.7805 78.0049 31.6946 78.9186 31.6946 80.0462C31.6946 81.1738 30.7805 82.0881 29.6528 82.0881H28.2917C27.1641 82.0881 26.25 81.1738 26.25 80.0462Z" fill="#665CD1"/>
<path d="M26.25 85.4921C26.25 84.3645 27.1641 83.4502 28.2917 83.4502H29.6528C30.7805 83.4502 31.6946 84.3645 31.6946 85.4921C31.6946 86.6198 30.7805 87.5335 29.6528 87.5335H28.2917C27.1641 87.5335 26.25 86.6198 26.25 85.4921Z" fill="#665CD1"/>
<path d="M33.0554 85.4921C33.0554 84.3645 33.9695 83.4502 35.0971 83.4502H36.4583C37.5859 83.4502 38.5 84.3645 38.5 85.4921C38.5 86.6198 37.5859 87.5335 36.4583 87.5335H35.0971C33.9695 87.5335 33.0554 86.6198 33.0554 85.4921Z" fill="#665CD1"/>
<path d="M26.25 90.9345C26.25 89.8069 27.1641 88.8926 28.2917 88.8926H29.6528C30.7805 88.8926 31.6946 89.8069 31.6946 90.9345C31.6946 92.0622 30.7805 92.9765 29.6528 92.9765H28.2917C27.1641 92.9765 26.25 92.0622 26.25 90.9345Z" fill="#665CD1"/>
<path d="M33.0554 90.9345C33.0554 89.8069 33.9695 88.8926 35.0971 88.8926H36.4583C37.5859 88.8926 38.5 89.8069 38.5 90.9345C38.5 92.0622 37.5859 92.9765 36.4583 92.9765H35.0971C33.9695 92.9765 33.0554 92.0622 33.0554 90.9345Z" fill="#665CD1"/>
<path d="M33.0554 80.0462C33.0554 78.9186 33.9695 78.0049 35.0971 78.0049H36.4583C37.5859 78.0049 38.5 78.9186 38.5 80.0462C38.5 81.1738 37.5859 82.0881 36.4583 82.0881H35.0971C33.9695 82.0881 33.0554 81.1738 33.0554 80.0462Z" fill="#665CD1"/>
</svg>
