<svg width="120" height="120" viewBox="0 0 120 120" fill="none" xmlns="http://www.w3.org/2000/svg">
<path d="M36.6688 18.9133C36.6688 15.3115 39.5887 12.3916 43.1906 12.3916H62.8146C66.4167 12.3916 69.3365 15.3115 69.3365 18.9133V31.2039C69.3365 34.8057 66.4167 37.7256 62.8146 37.7256H43.1906C39.5887 37.7256 36.6688 34.8058 36.6688 31.2039V18.9133Z" fill="#FEFEFE"/>
<path fill-rule="evenodd" clip-rule="evenodd" d="M62.8146 16.3046H43.1906C41.7498 16.3046 40.5819 17.4726 40.5819 18.9133V31.2039C40.5819 32.6446 41.7498 33.8126 43.1906 33.8126H62.8146C64.2554 33.8126 65.4234 32.6446 65.4234 31.2039V18.9133C65.4234 17.4726 64.2554 16.3046 62.8146 16.3046ZM43.1906 12.3916C39.5887 12.3916 36.6688 15.3115 36.6688 18.9133V31.2039C36.6688 34.8058 39.5887 37.7256 43.1906 37.7256H62.8146C66.4167 37.7256 69.3365 34.8057 69.3365 31.2039V18.9133C69.3365 15.3115 66.4167 12.3916 62.8146 12.3916H43.1906Z" fill="#665CD1"/>
<path fill-rule="evenodd" clip-rule="evenodd" d="M34.5238 21.0391C30.922 21.0391 28.0021 23.9589 28.0021 27.5608V40.0199C28.0021 43.6217 30.922 46.5416 34.5238 46.5416H35.3357V51.1775C35.3357 52.9206 37.4431 53.7935 38.6757 52.561L44.6951 46.5416H53.8988C57.5007 46.5416 60.4205 43.6217 60.4205 40.0199V27.5608C60.4205 23.9589 57.5007 21.0391 53.8989 21.0391H34.5238Z" fill="#FEFEFE"/>
<path fill-rule="evenodd" clip-rule="evenodd" d="M39.2487 46.4541L43.0743 42.6286H53.8988C55.3396 42.6286 56.5075 41.4606 56.5075 40.0199V27.5608C56.5075 26.12 55.3396 24.9521 53.8989 24.9521H34.5238C33.0831 24.9521 31.9151 26.12 31.9151 27.5608V40.0199C31.9151 41.4606 33.0831 42.6286 34.5238 42.6286H39.2487V46.4541ZM28.0021 27.5608C28.0021 23.9589 30.922 21.0391 34.5238 21.0391H53.8989C57.5007 21.0391 60.4205 23.9589 60.4205 27.5608V40.0199C60.4205 43.6217 57.5007 46.5416 53.8988 46.5416H44.6951L38.6757 52.561C37.4431 53.7935 35.3357 52.9206 35.3357 51.1775V46.5416H34.5238C30.922 46.5416 28.0021 43.6217 28.0021 40.0199V27.5608Z" fill="#665CD1"/>
</svg>
